<?xml version="1.0" standalone="no"?>
<!DOCTYPE svg PUBLIC "-//W3C//DTD SVG 20010904//EN"
 "http://www.w3.org/TR/2001/REC-SVG-20010904/DTD/svg10.dtd">
<svg version="1.0" xmlns="http://www.w3.org/2000/svg"
 width="800.000000pt" height="800.000000pt" viewBox="0 0 800.000000 800.000000"
 preserveAspectRatio="xMidYMid meet">

<g transform="translate(0.000000,800.000000) scale(0.100000,-0.100000)"
fill="#000000" stroke="none">
<path d="M2744 5155 c-8 -33 11 -55 46 -55 30 0 43 23 33 60 -4 15 -14 20 -39
20 -28 0 -35 -5 -40 -25z"/>
<path d="M5176 5164 c-17 -44 -1 -64 49 -64 26 0 38 21 29 56 -5 19 -13 24
-39 24 -21 0 -35 -6 -39 -16z"/>
<path d="M2542 5148 c-20 -20 -15 -66 8 -73 34 -11 60 4 60 34 0 30 -16 51
-40 51 -9 0 -21 -5 -28 -12z"/>
<path d="M2978 5148 c-27 -22 -32 -55 -9 -67 11 -6 28 -11 39 -11 35 0 45 62
13 80 -24 13 -24 13 -43 -2z"/>
<path d="M4972 5148 c-17 -17 -15 -67 3 -74 8 -4 26 -3 40 0 20 5 25 13 25 36
0 40 -42 64 -68 38z"/>
<path d="M5394 5146 c-12 -31 1 -60 30 -67 16 -5 33 -6 38 -3 12 8 10 58 -4
72 -17 17 -57 15 -64 -2z"/>
<path d="M5610 5090 c-11 -11 -20 -27 -20 -35 0 -17 30 -35 58 -35 35 0 45 62
13 80 -26 13 -28 13 -51 -10z"/>
<path d="M2324 5086 c-9 -25 11 -71 32 -74 27 -4 56 30 52 60 -2 19 -10 24
-41 26 -26 2 -39 -1 -43 -12z"/>
<path d="M3172 5078 c-21 -21 -14 -54 14 -67 35 -16 56 2 52 43 -2 25 -8 32
-28 34 -14 2 -31 -3 -38 -10z"/>
<path d="M4760 5058 c0 -47 13 -62 44 -54 33 8 42 29 28 62 -9 18 -19 24 -42
24 -27 0 -30 -3 -30 -32z"/>
<path d="M2585 5036 c-66 -13 -190 -47 -276 -75 -85 -28 -164 -51 -174 -51
-10 0 -71 25 -136 55 -65 30 -130 57 -144 61 -27 7 -27 7 -20 -37 10 -65 52
-134 113 -190 30 -28 56 -48 58 -46 2 2 -25 33 -60 69 -61 64 -83 108 -70 143
4 8 12 15 20 15 15 0 161 -73 226 -112 l36 -23 74 34 c94 42 209 78 328 103
115 24 310 29 390 10 391 -93 651 -283 907 -662 28 -41 60 -81 72 -88 20 -12
21 -10 21 27 0 71 -149 265 -325 421 -165 147 -334 246 -560 327 -92 33 -111
36 -230 39 -105 3 -153 -1 -250 -20z"/>
<path d="M5045 5050 c-152 -31 -410 -156 -570 -276 -208 -156 -425 -418 -425
-513 0 -29 2 -31 20 -21 11 6 48 52 82 103 210 313 456 512 748 605 146 46
205 56 330 56 174 -1 319 -35 541 -126 l78 -32 53 34 c70 45 179 99 200 100 9
0 19 -9 23 -19 9 -31 -20 -86 -76 -146 -29 -30 -47 -55 -42 -55 6 0 36 27 66
60 57 61 101 152 95 196 -3 21 -8 20 -143 -42 -77 -35 -149 -64 -161 -64 -11
0 -65 16 -120 35 -270 96 -541 137 -699 105z"/>
<path d="M2132 5031 c-18 -11 -11 -61 11 -75 24 -15 51 3 55 38 3 20 -2 28
-23 36 -31 12 -27 12 -43 1z"/>
<path d="M5818 5029 c-27 -15 -23 -58 7 -69 35 -13 55 -3 55 29 0 44 -26 61
-62 40z"/>
<path d="M3366 4974 c-20 -20 -20 -27 2 -47 30 -26 55 -25 66 4 5 15 6 34 3
43 -8 20 -51 21 -71 0z"/>
<path d="M4567 4983 c-28 -28 19 -91 54 -73 28 15 35 51 13 67 -19 14 -56 17
-67 6z"/>
<path d="M5517 4933 c-15 -14 -6 -391 13 -573 31 -288 79 -520 107 -520 9 0
12 8 8 23 -68 309 -105 627 -105 901 0 141 -7 186 -23 169z"/>
<path d="M2460 4738 c0 -106 -7 -256 -15 -333 -13 -128 -23 -187 -70 -445 -17
-97 -19 -128 -6 -115 31 34 76 254 105 517 16 136 22 477 10 537 -15 75 -24
17 -24 -161z"/>
<path d="M4395 4864 c-20 -20 -19 -37 4 -58 15 -14 23 -15 45 -5 28 13 34 40
14 56 -25 19 -48 22 -63 7z"/>
<path d="M3540 4855 c-16 -19 -8 -37 24 -55 23 -12 29 -12 43 2 10 11 13 25 9
42 -5 20 -13 26 -35 26 -16 0 -34 -7 -41 -15z"/>
<path d="M3720 4733 c-35 -13 -40 -24 -25 -53 20 -38 41 -44 65 -18 25 27 26
54 1 68 -11 5 -21 10 -23 9 -2 0 -10 -3 -18 -6z"/>
<path d="M4230 4725 c-19 -22 -4 -64 25 -71 50 -12 75 41 33 70 -28 20 -42 20
-58 1z"/>
<path d="M1958 4662 c-54 -60 -63 -92 -44 -149 9 -26 21 -106 27 -178 6 -71
24 -209 41 -305 39 -216 47 -402 24 -503 -25 -107 -23 -121 28 -163 95 -79
249 -118 351 -90 l50 15 -70 -6 c-60 -5 -78 -2 -113 16 -24 12 -69 30 -101 40
-33 10 -73 29 -91 41 -36 26 -36 21 -10 230 l13 105 -41 235 c-70 395 -74 507
-22 672 28 89 14 102 -42 40z"/>
<path d="M5990 4677 c0 -13 7 -46 15 -73 8 -27 20 -94 26 -149 13 -118 2 -219
-56 -550 -35 -200 -36 -214 -25 -295 25 -177 25 -202 -3 -228 -13 -12 -57 -32
-98 -44 -41 -11 -87 -31 -102 -44 -33 -28 -56 -29 -120 -10 -26 8 -47 10 -47
5 0 -5 11 -11 25 -14 14 -3 36 -7 50 -10 14 -3 25 -10 25 -15 0 -7 -786 -10
-2251 -10 l-2250 0 3 -21 3 -22 2815 0 2815 1 3 21 3 21 -555 0 c-347 0 -556
4 -556 10 0 5 17 12 38 16 68 13 161 52 212 89 46 33 50 40 50 77 0 22 -7 68
-17 102 -22 83 -20 214 7 361 32 174 48 292 60 445 6 74 17 155 25 178 13 39
13 48 -1 80 -15 37 -70 102 -86 102 -4 0 -8 -11 -8 -23z"/>
<path d="M3864 4570 c-12 -5 -25 -14 -29 -20 -10 -16 23 -60 45 -60 26 0 48
45 34 68 -13 20 -24 23 -50 12z"/>
<path d="M4080 4541 c0 -19 8 -35 21 -45 26 -18 42 -13 59 19 18 33 -1 55 -46
55 -31 0 -34 -3 -34 -29z"/>
<path d="M2710 4431 c0 -6 6 -14 13 -18 7 -4 37 -36 65 -71 85 -104 128 -201
163 -377 11 -55 22 -102 25 -104 2 -2 4 28 4 67 0 166 -60 324 -164 428 -62
62 -106 93 -106 75z"/>
<path d="M5233 4401 c-88 -69 -160 -179 -187 -287 -18 -70 -35 -243 -25 -250
8 -4 19 31 19 62 0 45 59 225 100 302 23 45 69 110 102 146 67 74 64 85 -9 27z"/>
<path d="M3962 4391 c-20 -12 -11 -41 20 -64 27 -20 28 -20 48 -2 23 20 26 45
8 63 -14 14 -57 16 -76 3z"/>
<path d="M2795 4240 c10 -59 -27 -158 -77 -206 -53 -50 -98 -71 -172 -80 -31
-4 -59 -10 -61 -14 -3 -4 4 -18 14 -32 47 -59 46 -130 -1 -276 l-20 -64 38
-39 c41 -42 59 -37 25 7 -12 15 -21 33 -21 40 0 7 18 48 39 91 21 43 49 112
62 153 24 83 40 107 96 151 21 17 47 47 58 66 28 49 49 61 76 45 11 -7 23 -11
26 -9 8 9 -50 162 -69 182 -19 20 -19 20 -13 -15z"/>
<path d="M5183 4235 c-26 -50 -59 -153 -51 -161 3 -3 15 0 26 7 27 17 49 6 66
-34 7 -19 34 -51 58 -71 54 -45 72 -75 98 -160 11 -36 38 -104 60 -150 22 -47
40 -90 40 -94 0 -5 -10 -21 -21 -36 -35 -45 -8 -49 29 -5 l33 39 -19 58 c-40
117 -46 161 -27 224 9 32 21 60 26 63 25 16 6 33 -47 39 -74 9 -121 29 -168
74 -50 48 -68 91 -75 177 l-6 70 -22 -40z"/>
<path d="M3974 4184 c-119 -62 -525 -225 -739 -296 -99 -33 -265 -82 -370
-108 -180 -45 -216 -60 -180 -74 23 -8 80 7 325 86 467 151 636 213 833 309
45 21 89 39 98 39 9 0 22 7 29 15 14 17 41 20 56 6 5 -5 27 -14 49 -21 22 -7
71 -28 108 -47 171 -85 309 -138 717 -272 324 -106 393 -126 414 -118 39 15
13 33 -71 51 -125 27 -437 118 -573 166 -179 65 -609 239 -632 257 -27 21 -35
22 -64 7z"/>
<path d="M4050 4125 c0 -9 108 -85 170 -119 245 -136 988 -453 1108 -472 34
-5 42 -4 42 9 0 9 -13 18 -31 22 -50 11 -288 90 -374 125 -271 108 -682 301
-837 393 -43 25 -78 44 -78 42z"/>
<path d="M3898 4084 c-4 -3 -57 -29 -120 -58 -62 -29 -162 -77 -223 -106 -312
-149 -565 -254 -764 -316 -156 -49 -161 -51 -161 -65 0 -23 58 -7 300 84 315
118 831 357 960 444 19 12 30 23 24 23 -6 0 -13 -3 -16 -6z"/>
<path d="M2153 3793 c-28 -2 -57 -11 -63 -18 -16 -19 -31 -18 210 -16 186 1
240 8 212 25 -13 8 -291 15 -359 9z"/>
<path d="M5503 3793 c-13 -2 -23 -11 -23 -19 0 -12 29 -14 168 -14 92 0 191
-3 220 -6 58 -8 72 8 25 28 -27 11 -343 20 -390 11z"/>
<path d="M1851 3158 c-6 -13 -25 -61 -45 -108 -19 -47 -53 -132 -76 -189 -51
-128 -62 -151 -89 -175 -12 -11 -21 -23 -21 -28 0 -4 36 -8 80 -8 44 0 80 3
80 7 0 4 -12 19 -27 35 l-26 28 18 42 c32 74 39 78 124 78 42 0 82 -4 89 -8
11 -8 52 -105 52 -125 0 -4 -11 -12 -25 -17 -14 -5 -25 -16 -25 -25 0 -13 29
-15 215 -15 134 0 215 4 215 10 0 5 -12 12 -27 15 -60 13 -58 6 -61 223 l-2
201 41 27 c55 35 41 41 -86 40 -92 -1 -100 -3 -100 -20 0 -14 10 -22 33 -28
l32 -9 -2 -207 -3 -207 -46 -3 c-53 -3 -65 7 -96 88 -100 256 -146 367 -156
376 -7 7 -22 15 -34 19 -18 5 -25 1 -32 -17z m62 -185 l35 -88 -70 -3 c-39 -2
-73 0 -76 2 -3 3 6 36 20 73 14 38 28 76 32 86 11 33 24 17 59 -70z"/>
<path d="M4028 3172 l-197 -2 -22 -70 c-19 -57 -21 -72 -10 -83 10 -10 16 -7
29 11 42 58 59 72 100 81 71 15 74 9 71 -203 -1 -99 -6 -189 -11 -198 -5 -10
-20 -18 -33 -18 -18 0 -25 -5 -25 -20 0 -19 7 -20 104 -20 58 0 107 4 110 9 7
11 -22 36 -31 28 -3 -4 -12 -2 -20 4 -10 9 -13 57 -13 215 0 121 4 205 10 209
25 15 96 -17 137 -63 32 -36 44 -44 53 -35 10 9 7 26 -9 76 -12 36 -27 69 -34
74 -7 4 -101 7 -209 5z"/>
<path d="M1270 3148 c-59 -31 -85 -68 -85 -123 0 -73 35 -99 208 -151 60 -18
117 -40 128 -50 55 -50 -15 -134 -111 -134 -60 0 -114 33 -167 100 -50 65 -79
78 -70 33 2 -16 10 -63 18 -105 7 -43 16 -78 21 -78 4 0 15 11 24 24 l16 25
41 -22 c63 -33 169 -36 230 -7 81 38 113 105 85 178 -19 50 -62 76 -195 118
-63 20 -125 46 -141 59 -26 23 -27 24 -10 52 9 15 33 36 52 46 33 17 39 18 88
3 41 -12 68 -30 116 -77 76 -73 91 -69 68 17 -8 33 -17 71 -21 87 -6 31 -20
34 -47 10 -17 -15 -21 -15 -54 0 -51 25 -140 22 -194 -5z"/>
<path d="M2405 3160 c-9 -15 13 -40 35 -40 10 0 21 -7 24 -16 9 -23 7 -387 -2
-401 -4 -6 -20 -16 -35 -22 -55 -21 -28 -31 83 -31 61 0 110 4 110 9 0 13 -26
32 -33 24 -4 -3 -13 0 -22 7 -11 9 -15 34 -15 101 l0 89 53 0 c65 0 73 -6 82
-53 6 -30 11 -37 31 -37 24 0 24 0 24 114 0 95 -3 115 -16 120 -22 9 -21 10
-35 -31 -18 -57 -26 -63 -85 -63 l-54 0 0 90 0 90 38 2 c65 3 146 -4 167 -14
11 -6 36 -29 57 -52 51 -58 64 -41 35 46 -21 63 -24 67 -57 71 -74 11 -378 8
-385 -3z"/>
<path d="M2867 3162 c-15 -3 -10 -10 22 -34 l41 -30 -2 -201 -3 -201 -25 -6
c-14 -3 -26 -14 -28 -23 -3 -15 8 -17 103 -17 96 0 106 2 103 17 -2 10 -12 19
-23 21 -41 7 -45 27 -45 215 0 185 6 217 40 217 23 0 49 39 28 42 -29 3 -194
3 -211 0z"/>
<path d="M3467 3160 c-84 -25 -132 -106 -103 -173 19 -45 59 -68 197 -111 138
-43 169 -67 149 -116 -17 -40 -67 -70 -119 -70 -74 0 -105 20 -198 129 -45 52
-52 36 -33 -75 17 -101 32 -125 50 -79 6 15 13 25 18 23 60 -31 98 -42 157
-45 58 -4 78 0 115 19 64 33 93 80 87 141 -7 77 -37 100 -190 148 -171 54
-202 87 -136 143 23 20 42 26 76 26 61 0 106 -24 156 -81 63 -73 105 -60 66
20 -10 22 -19 54 -19 71 0 37 -23 49 -50 25 -18 -16 -22 -16 -60 -1 -43 17
-117 20 -163 6z"/>
<path d="M4480 3158 c0 -22 -174 -443 -187 -451 -20 -12 -43 -38 -43 -48 0 -5
36 -9 80 -9 83 0 102 12 60 38 -11 7 -20 21 -20 31 0 31 37 108 55 115 31 11
162 7 173 -7 11 -13 42 -93 45 -116 1 -8 -9 -17 -23 -21 -14 -3 -26 -14 -28
-24 -4 -17 12 -18 305 -14 273 3 312 5 341 21 73 40 97 145 44 195 -15 15 -37
32 -47 38 -19 11 -18 14 17 50 53 57 56 81 16 135 -21 27 -47 48 -69 56 -20 6
-117 13 -225 15 -156 2 -189 1 -189 -11 0 -14 15 -25 48 -35 16 -5 17 -22 15
-213 l-3 -208 -42 -3 c-52 -4 -69 13 -102 100 -70 187 -144 363 -154 370 -19
12 -67 9 -67 -4z m701 -77 c24 -29 25 -83 2 -103 -37 -32 -70 -41 -153 -42
l-85 -1 -5 78 c-3 42 -3 82 -1 88 2 7 41 10 113 7 101 -3 111 -5 129 -27z
m-666 -31 c3 -5 16 -38 29 -72 13 -35 27 -71 31 -80 6 -16 0 -18 -63 -18 -39
0 -73 3 -75 8 -6 10 54 172 64 172 4 0 11 -4 14 -10z m650 -174 c59 -25 73
-88 31 -141 -24 -30 -25 -30 -140 -33 l-116 -4 0 89 c0 50 3 93 7 96 12 13
183 7 218 -7z"/>
<path d="M5352 3161 c-23 -6 -23 -7 -5 -23 10 -9 27 -18 38 -20 18 -3 21 -14
26 -118 4 -63 4 -158 0 -210 l-6 -95 -30 -5 c-18 -3 -31 -12 -33 -23 -3 -16
12 -17 200 -17 l203 1 27 81 c38 111 25 121 -50 39 l-57 -64 -79 -5 c-60 -4
-80 -2 -87 9 -5 8 -9 100 -9 205 0 204 0 204 50 204 18 0 36 28 25 39 -8 8
-184 10 -213 2z"/>
<path d="M5798 3162 c-35 -7 -12 -37 32 -44 l25 -3 0 -210 0 -209 -25 -6 c-14
-3 -26 -14 -28 -23 -3 -16 13 -17 219 -15 l223 3 19 33 c28 48 47 116 36 133
-6 11 -19 2 -56 -40 -61 -70 -90 -81 -208 -81 l-96 0 3 93 3 92 29 3 c16 2 44
1 63 -3 26 -5 33 -11 33 -30 0 -36 10 -55 31 -55 18 0 19 9 19 114 0 95 -3
115 -16 120 -9 3 -17 6 -19 6 -1 0 -5 -17 -9 -39 -8 -51 -24 -63 -83 -59 l-48
3 -3 83 c-2 61 0 82 10 83 62 5 197 -5 218 -16 14 -7 41 -29 59 -49 56 -58 65
-43 31 54 -16 48 -22 56 -52 62 -32 7 -376 7 -410 0z"/>
<path d="M6457 3155 c-52 -18 -85 -51 -97 -96 -24 -88 13 -124 191 -180 152
-48 179 -70 153 -120 -25 -49 -70 -71 -136 -66 -67 4 -108 31 -159 106 -34 51
-66 64 -62 26 1 -11 5 -55 9 -97 6 -66 10 -78 25 -78 10 0 22 8 27 17 9 15 14
15 67 -5 125 -48 252 -14 301 80 31 60 8 123 -59 162 -23 14 -80 36 -127 50
-109 31 -143 44 -152 59 -15 24 -7 57 19 82 22 20 38 25 79 25 60 0 106 -27
170 -98 49 -55 65 -51 53 14 -14 75 -29 123 -40 130 -6 3 -19 -2 -29 -11 -18
-16 -22 -16 -60 -1 -49 19 -121 20 -173 1z"/>
<path d="M1189 2606 c-36 -37 -99 -36 2811 -36 2812 0 2820 0 2820 20 0 20 -9
20 -2811 22 -1765 2 -2814 -1 -2820 -6z"/>
<path d="M2317 2458 c-19 -40 -47 -100 -61 -133 -15 -33 -39 -72 -53 -87 -32
-34 -25 -45 27 -40 39 4 40 5 25 22 -15 16 -14 21 1 59 16 40 18 41 63 41 37
1 43 3 28 11 -10 6 -27 9 -38 6 -26 -7 -26 32 0 64 16 20 21 21 34 10 9 -7 19
-27 23 -44 3 -17 13 -42 21 -54 8 -12 18 -42 21 -68 4 -25 10 -46 15 -45 4 0
31 0 61 0 l55 0 -33 53 c-17 30 -56 104 -86 165 -29 62 -57 112 -61 112 -3 0
-22 -33 -42 -72z"/>
<path d="M5218 2524 c-4 -3 -3 -17 3 -31 5 -13 9 -40 9 -58 l0 -34 -54 1 c-37
1 -62 -4 -81 -16 -26 -17 -28 -17 -50 4 -21 20 -28 21 -55 11 -22 -7 -46 -8
-77 -1 -54 13 -68 6 -48 -23 18 -26 20 -98 3 -144 -6 -18 -10 -34 -7 -36 2 -2
25 -2 51 1 45 4 46 5 37 29 -13 35 -11 116 4 136 11 16 14 16 47 0 23 -12 36
-27 41 -48 4 -16 10 -42 13 -57 7 -29 44 -54 86 -58 40 -3 40 -2 9 29 -24 25
-29 38 -29 80 0 63 15 80 67 72 37 -6 38 -7 38 -51 0 -25 -4 -64 -8 -87 l-7
-43 45 0 45 0 -2 163 -3 162 -35 3 c-20 2 -39 0 -42 -4z"/>
<path d="M4404 2511 c-2 -2 8 -13 23 -24 26 -20 26 -21 21 -138 -5 -116 -16
-155 -42 -146 -6 2 -13 19 -16 38 -4 30 -8 34 -35 34 -25 0 -31 -4 -33 -27 -6
-49 85 -76 147 -43 39 19 51 60 51 168 0 78 3 94 21 113 l21 22 -77 4 c-42 2
-78 1 -81 -1z"/>
<path d="M2560 2399 c0 -4 7 -12 15 -19 17 -14 20 -96 6 -148 l-10 -32 42 0
42 0 0 80 c0 95 16 121 62 104 27 -9 28 -12 28 -79 0 -39 -4 -78 -9 -87 -7
-16 -3 -18 36 -18 l43 0 -3 74 c-5 88 7 116 47 116 46 0 55 -20 48 -110 l-5
-80 37 0 38 0 -4 83 c-4 73 -8 85 -31 106 -22 20 -31 22 -66 15 -43 -8 -50 -8
-213 -2 -57 2 -103 0 -103 -3z"/>
<path d="M3016 2401 c-3 -5 1 -11 9 -15 18 -6 21 -118 5 -160 -9 -25 -8 -26
33 -26 l42 0 -3 52 c-2 29 1 72 6 95 9 41 9 42 -21 52 -37 13 -64 14 -71 2z"/>
<path d="M3151 2403 c-9 -4 -3 -10 18 -19 29 -12 31 -17 31 -61 0 -26 -4 -65
-9 -85 l-9 -38 42 0 43 0 -5 55 c-7 83 3 122 34 129 14 4 35 4 46 0 19 -6 20
-12 16 -96 l-4 -89 35 3 35 3 -3 70 c-4 129 -17 142 -121 123 -45 -8 -68 -7
-86 1 -27 12 -41 13 -63 4z"/>
<path d="M3499 2396 c-15 -9 -29 -22 -33 -31 -9 -24 46 -20 62 5 14 22 45 26
59 8 12 -17 9 -136 -5 -150 -5 -5 -20 -8 -33 -6 -31 4 -37 42 -12 71 17 20 17
20 0 14 -11 -4 -30 -10 -43 -13 -25 -6 -39 -37 -32 -71 3 -16 15 -18 101 -20
l97 -2 0 89 c0 79 -2 90 -20 100 -35 19 -112 22 -141 6z"/>
<path d="M3716 2393 c11 -23 11 -129 1 -166 -8 -28 -7 -28 35 -25 l42 3 -3 51
c-1 27 4 69 12 92 l15 42 -29 0 c-15 0 -31 5 -34 10 -3 6 -15 10 -27 10 -16 0
-18 -4 -12 -17z"/>
<path d="M3845 2401 c-16 -7 -15 -9 13 -14 l32 -6 0 -75 c0 -41 -4 -78 -10
-81 -22 -14 -7 -25 34 -25 l44 0 -5 88 c-3 48 -10 93 -17 99 -15 16 -66 24
-91 14z"/>
<path d="M4680 2403 c-48 -5 -79 -22 -96 -55 -18 -35 -18 -52 1 -92 22 -47
112 -85 130 -56 3 6 -3 10 -15 10 -44 0 -79 111 -47 153 21 28 62 32 86 8 26
-26 29 -115 5 -149 -14 -21 -14 -22 6 -22 26 0 78 52 87 88 7 30 -12 68 -47
93 -29 20 -62 27 -110 22z"/>
<path d="M5408 2400 c-51 -6 -75 -21 -64 -39 11 -18 44 -13 67 10 11 11 28 19
37 17 15 -3 17 -17 16 -96 l-1 -92 44 0 c40 0 43 2 39 23 -3 12 -8 52 -11 89
-4 37 -12 71 -18 76 -19 15 -58 19 -109 12z"/>
<path d="M5596 2388 c9 -27 9 -92 0 -148 l-6 -40 45 0 c43 0 58 11 34 26 -13
8 -5 104 11 134 13 25 45 34 70 20 19 -10 21 -18 18 -78 -2 -37 -8 -75 -12
-84 -7 -16 -2 -18 37 -18 l44 0 -4 73 c-2 39 -6 82 -9 95 -7 33 -47 45 -110
32 -38 -8 -59 -8 -73 -1 -35 19 -54 14 -45 -11z"/>
<path d="M4111 2348 c-16 -5 -21 -16 -21 -42 0 -29 4 -36 31 -45 51 -18 97 18
80 62 -10 27 -53 39 -90 25z"/>
<path d="M5372 2289 c-40 -17 -43 -21 -40 -51 3 -33 4 -33 58 -35 53 -3 54 -2
33 13 -27 19 -29 36 -7 69 19 29 13 30 -44 4z"/>
</g>
</svg>
