<svg version="1.1" xmlns="http://www.w3.org/2000/svg" xmlns:xlink="http://www.w3.org/1999/xlink" width="800.000000pt" height="800.000000pt" viewBox="0,0,256,256"><g fill="#ffffff" fill-rule="nonzero" stroke="none" stroke-width="1" stroke-linecap="butt" stroke-linejoin="miter" stroke-miterlimit="10" stroke-dasharray="" stroke-dashoffset="0" font-family="none" font-weight="none" font-size="none" text-anchor="none" style="mix-blend-mode: normal"><g transform="translate(0.12205,-10.08167) scale(0.32,0.32)"><g transform="translate(0,800) scale(0.1,-0.1)"><path d="M2744,5155c-8,-33 11,-55 46,-55c30,0 43,23 33,60c-4,15 -14,20 -39,20c-28,0 -35,-5 -40,-25z"></path><path d="M5176,5164c-17,-44 -1,-64 49,-64c26,0 38,21 29,56c-5,19 -13,24 -39,24c-21,0 -35,-6 -39,-16z"></path><path d="M2542,5148c-20,-20 -15,-66 8,-73c34,-11 60,4 60,34c0,30 -16,51 -40,51c-9,0 -21,-5 -28,-12z"></path><path d="M2978,5148c-27,-22 -32,-55 -9,-67c11,-6 28,-11 39,-11c35,0 45,62 13,80c-24,13 -24,13 -43,-2z"></path><path d="M4972,5148c-17,-17 -15,-67 3,-74c8,-4 26,-3 40,0c20,5 25,13 25,36c0,40 -42,64 -68,38z"></path><path d="M5394,5146c-12,-31 1,-60 30,-67c16,-5 33,-6 38,-3c12,8 10,58 -4,72c-17,17 -57,15 -64,-2z"></path><path d="M5610,5090c-11,-11 -20,-27 -20,-35c0,-17 30,-35 58,-35c35,0 45,62 13,80c-26,13 -28,13 -51,-10z"></path><path d="M2324,5086c-9,-25 11,-71 32,-74c27,-4 56,30 52,60c-2,19 -10,24 -41,26c-26,2 -39,-1 -43,-12z"></path><path d="M3172,5078c-21,-21 -14,-54 14,-67c35,-16 56,2 52,43c-2,25 -8,32 -28,34c-14,2 -31,-3 -38,-10z"></path><path d="M4760,5058c0,-47 13,-62 44,-54c33,8 42,29 28,62c-9,18 -19,24 -42,24c-27,0 -30,-3 -30,-32z"></path><path d="M2585,5036c-66,-13 -190,-47 -276,-75c-85,-28 -164,-51 -174,-51c-10,0 -71,25 -136,55c-65,30 -130,57 -144,61c-27,7 -27,7 -20,-37c10,-65 52,-134 113,-190c30,-28 56,-48 58,-46c2,2 -25,33 -60,69c-61,64 -83,108 -70,143c4,8 12,15 20,15c15,0 161,-73 226,-112l36,-23l74,34c94,42 209,78 328,103c115,24 310,29 390,10c391,-93 651,-283 907,-662c28,-41 60,-81 72,-88c20,-12 21,-10 21,27c0,71 -149,265 -325,421c-165,147 -334,246 -560,327c-92,33 -111,36 -230,39c-105,3 -153,-1 -250,-20z"></path><path d="M5045,5050c-152,-31 -410,-156 -570,-276c-208,-156 -425,-418 -425,-513c0,-29 2,-31 20,-21c11,6 48,52 82,103c210,313 456,512 748,605c146,46 205,56 330,56c174,-1 319,-35 541,-126l78,-32l53,34c70,45 179,99 200,100c9,0 19,-9 23,-19c9,-31 -20,-86 -76,-146c-29,-30 -47,-55 -42,-55c6,0 36,27 66,60c57,61 101,152 95,196c-3,21 -8,20 -143,-42c-77,-35 -149,-64 -161,-64c-11,0 -65,16 -120,35c-270,96 -541,137 -699,105z"></path><path d="M2132,5031c-18,-11 -11,-61 11,-75c24,-15 51,3 55,38c3,20 -2,28 -23,36c-31,12 -27,12 -43,1z"></path><path d="M5818,5029c-27,-15 -23,-58 7,-69c35,-13 55,-3 55,29c0,44 -26,61 -62,40z"></path><path d="M3366,4974c-20,-20 -20,-27 2,-47c30,-26 55,-25 66,4c5,15 6,34 3,43c-8,20 -51,21 -71,0z"></path><path d="M4567,4983c-28,-28 19,-91 54,-73c28,15 35,51 13,67c-19,14 -56,17 -67,6z"></path><path d="M5517,4933c-15,-14 -6,-391 13,-573c31,-288 79,-520 107,-520c9,0 12,8 8,23c-68,309 -105,627 -105,901c0,141 -7,186 -23,169z"></path><path d="M2460,4738c0,-106 -7,-256 -15,-333c-13,-128 -23,-187 -70,-445c-17,-97 -19,-128 -6,-115c31,34 76,254 105,517c16,136 22,477 10,537c-15,75 -24,17 -24,-161z"></path><path d="M4395,4864c-20,-20 -19,-37 4,-58c15,-14 23,-15 45,-5c28,13 34,40 14,56c-25,19 -48,22 -63,7z"></path><path d="M3540,4855c-16,-19 -8,-37 24,-55c23,-12 29,-12 43,2c10,11 13,25 9,42c-5,20 -13,26 -35,26c-16,0 -34,-7 -41,-15z"></path><path d="M3720,4733c-35,-13 -40,-24 -25,-53c20,-38 41,-44 65,-18c25,27 26,54 1,68c-11,5 -21,10 -23,9c-2,0 -10,-3 -18,-6z"></path><path d="M4230,4725c-19,-22 -4,-64 25,-71c50,-12 75,41 33,70c-28,20 -42,20 -58,1z"></path><path d="M1958,4662c-54,-60 -63,-92 -44,-149c9,-26 21,-106 27,-178c6,-71 24,-209 41,-305c39,-216 47,-402 24,-503c-25,-107 -23,-121 28,-163c95,-79 249,-118 351,-90l50,15l-70,-6c-60,-5 -78,-2 -113,16c-24,12 -69,30 -101,40c-33,10 -73,29 -91,41c-36,26 -36,21 -10,230l13,105l-41,235c-70,395 -74,507 -22,672c28,89 14,102 -42,40z"></path><path d="M5990,4677c0,-13 7,-46 15,-73c8,-27 20,-94 26,-149c13,-118 2,-219 -56,-550c-35,-200 -36,-214 -25,-295c25,-177 25,-202 -3,-228c-13,-12 -57,-32 -98,-44c-41,-11 -87,-31 -102,-44c-33,-28 -56,-29 -120,-10c-26,8 -47,10 -47,5c0,-5 11,-11 25,-14c14,-3 36,-7 50,-10c14,-3 25,-10 25,-15c0,-7 -786,-10 -2251,-10h-2250l3,-21l3,-22h2815l2815,1l3,21l3,21h-555c-347,0 -556,4 -556,10c0,5 17,12 38,16c68,13 161,52 212,89c46,33 50,40 50,77c0,22 -7,68 -17,102c-22,83 -20,214 7,361c32,174 48,292 60,445c6,74 17,155 25,178c13,39 13,48 -1,80c-15,37 -70,102 -86,102c-4,0 -8,-11 -8,-23z"></path><path d="M3864,4570c-12,-5 -25,-14 -29,-20c-10,-16 23,-60 45,-60c26,0 48,45 34,68c-13,20 -24,23 -50,12z"></path><path d="M4080,4541c0,-19 8,-35 21,-45c26,-18 42,-13 59,19c18,33 -1,55 -46,55c-31,0 -34,-3 -34,-29z"></path><path d="M2710,4431c0,-6 6,-14 13,-18c7,-4 37,-36 65,-71c85,-104 128,-201 163,-377c11,-55 22,-102 25,-104c2,-2 4,28 4,67c0,166 -60,324 -164,428c-62,62 -106,93 -106,75z"></path><path d="M5233,4401c-88,-69 -160,-179 -187,-287c-18,-70 -35,-243 -25,-250c8,-4 19,31 19,62c0,45 59,225 100,302c23,45 69,110 102,146c67,74 64,85 -9,27z"></path><path d="M3962,4391c-20,-12 -11,-41 20,-64c27,-20 28,-20 48,-2c23,20 26,45 8,63c-14,14 -57,16 -76,3z"></path><path d="M2795,4240c10,-59 -27,-158 -77,-206c-53,-50 -98,-71 -172,-80c-31,-4 -59,-10 -61,-14c-3,-4 4,-18 14,-32c47,-59 46,-130 -1,-276l-20,-64l38,-39c41,-42 59,-37 25,7c-12,15 -21,33 -21,40c0,7 18,48 39,91c21,43 49,112 62,153c24,83 40,107 96,151c21,17 47,47 58,66c28,49 49,61 76,45c11,-7 23,-11 26,-9c8,9 -50,162 -69,182c-19,20 -19,20 -13,-15z"></path><path d="M5183,4235c-26,-50 -59,-153 -51,-161c3,-3 15,0 26,7c27,17 49,6 66,-34c7,-19 34,-51 58,-71c54,-45 72,-75 98,-160c11,-36 38,-104 60,-150c22,-47 40,-90 40,-94c0,-5 -10,-21 -21,-36c-35,-45 -8,-49 29,-5l33,39l-19,58c-40,117 -46,161 -27,224c9,32 21,60 26,63c25,16 6,33 -47,39c-74,9 -121,29 -168,74c-50,48 -68,91 -75,177l-6,70z"></path><path d="M3974,4184c-119,-62 -525,-225 -739,-296c-99,-33 -265,-82 -370,-108c-180,-45 -216,-60 -180,-74c23,-8 80,7 325,86c467,151 636,213 833,309c45,21 89,39 98,39c9,0 22,7 29,15c14,17 41,20 56,6c5,-5 27,-14 49,-21c22,-7 71,-28 108,-47c171,-85 309,-138 717,-272c324,-106 393,-126 414,-118c39,15 13,33 -71,51c-125,27 -437,118 -573,166c-179,65 -609,239 -632,257c-27,21 -35,22 -64,7z"></path><path d="M4050,4125c0,-9 108,-85 170,-119c245,-136 988,-453 1108,-472c34,-5 42,-4 42,9c0,9 -13,18 -31,22c-50,11 -288,90 -374,125c-271,108 -682,301 -837,393c-43,25 -78,44 -78,42z"></path><path d="M3898,4084c-4,-3 -57,-29 -120,-58c-62,-29 -162,-77 -223,-106c-312,-149 -565,-254 -764,-316c-156,-49 -161,-51 -161,-65c0,-23 58,-7 300,84c315,118 831,357 960,444c19,12 30,23 24,23c-6,0 -13,-3 -16,-6z"></path><path d="M2153,3793c-28,-2 -57,-11 -63,-18c-16,-19 -31,-18 210,-16c186,1 240,8 212,25c-13,8 -291,15 -359,9z"></path><path d="M5503,3793c-13,-2 -23,-11 -23,-19c0,-12 29,-14 168,-14c92,0 191,-3 220,-6c58,-8 72,8 25,28c-27,11 -343,20 -390,11z"></path><path d="M1851,3158c-6,-13 -25,-61 -45,-108c-19,-47 -53,-132 -76,-189c-51,-128 -62,-151 -89,-175c-12,-11 -21,-23 -21,-28c0,-4 36,-8 80,-8c44,0 80,3 80,7c0,4 -12,19 -27,35l-26,28l18,42c32,74 39,78 124,78c42,0 82,-4 89,-8c11,-8 52,-105 52,-125c0,-4 -11,-12 -25,-17c-14,-5 -25,-16 -25,-25c0,-13 29,-15 215,-15c134,0 215,4 215,10c0,5 -12,12 -27,15c-60,13 -58,6 -61,223l-2,201l41,27c55,35 41,41 -86,40c-92,-1 -100,-3 -100,-20c0,-14 10,-22 33,-28l32,-9l-2,-207l-3,-207l-46,-3c-53,-3 -65,7 -96,88c-100,256 -146,367 -156,376c-7,7 -22,15 -34,19c-18,5 -25,1 -32,-17zM1913,2973l35,-88l-70,-3c-39,-2 -73,0 -76,2c-3,3 6,36 20,73c14,38 28,76 32,86c11,33 24,17 59,-70z"></path><path d="M4028,3172l-197,-2l-22,-70c-19,-57 -21,-72 -10,-83c10,-10 16,-7 29,11c42,58 59,72 100,81c71,15 74,9 71,-203c-1,-99 -6,-189 -11,-198c-5,-10 -20,-18 -33,-18c-18,0 -25,-5 -25,-20c0,-19 7,-20 104,-20c58,0 107,4 110,9c7,11 -22,36 -31,28c-3,-4 -12,-2 -20,4c-10,9 -13,57 -13,215c0,121 4,205 10,209c25,15 96,-17 137,-63c32,-36 44,-44 53,-35c10,9 7,26 -9,76c-12,36 -27,69 -34,74c-7,4 -101,7 -209,5z"></path><path d="M1270,3148c-59,-31 -85,-68 -85,-123c0,-73 35,-99 208,-151c60,-18 117,-40 128,-50c55,-50 -15,-134 -111,-134c-60,0 -114,33 -167,100c-50,65 -79,78 -70,33c2,-16 10,-63 18,-105c7,-43 16,-78 21,-78c4,0 15,11 24,24l16,25l41,-22c63,-33 169,-36 230,-7c81,38 113,105 85,178c-19,50 -62,76 -195,118c-63,20 -125,46 -141,59c-26,23 -27,24 -10,52c9,15 33,36 52,46c33,17 39,18 88,3c41,-12 68,-30 116,-77c76,-73 91,-69 68,17c-8,33 -17,71 -21,87c-6,31 -20,34 -47,10c-17,-15 -21,-15 -54,0c-51,25 -140,22 -194,-5z"></path><path d="M2405,3160c-9,-15 13,-40 35,-40c10,0 21,-7 24,-16c9,-23 7,-387 -2,-401c-4,-6 -20,-16 -35,-22c-55,-21 -28,-31 83,-31c61,0 110,4 110,9c0,13 -26,32 -33,24c-4,-3 -13,0 -22,7c-11,9 -15,34 -15,101v89h53c65,0 73,-6 82,-53c6,-30 11,-37 31,-37c24,0 24,0 24,114c0,95 -3,115 -16,120c-22,9 -21,10 -35,-31c-18,-57 -26,-63 -85,-63h-54v90v90l38,2c65,3 146,-4 167,-14c11,-6 36,-29 57,-52c51,-58 64,-41 35,46c-21,63 -24,67 -57,71c-74,11 -378,8 -385,-3z"></path><path d="M2867,3162c-15,-3 -10,-10 22,-34l41,-30l-2,-201l-3,-201l-25,-6c-14,-3 -26,-14 -28,-23c-3,-15 8,-17 103,-17c96,0 106,2 103,17c-2,10 -12,19 -23,21c-41,7 -45,27 -45,215c0,185 6,217 40,217c23,0 49,39 28,42c-29,3 -194,3 -211,0z"></path><path d="M3467,3160c-84,-25 -132,-106 -103,-173c19,-45 59,-68 197,-111c138,-43 169,-67 149,-116c-17,-40 -67,-70 -119,-70c-74,0 -105,20 -198,129c-45,52 -52,36 -33,-75c17,-101 32,-125 50,-79c6,15 13,25 18,23c60,-31 98,-42 157,-45c58,-4 78,0 115,19c64,33 93,80 87,141c-7,77 -37,100 -190,148c-171,54 -202,87 -136,143c23,20 42,26 76,26c61,0 106,-24 156,-81c63,-73 105,-60 66,20c-10,22 -19,54 -19,71c0,37 -23,49 -50,25c-18,-16 -22,-16 -60,-1c-43,17 -117,20 -163,6z"></path><path d="M4480,3158c0,-22 -174,-443 -187,-451c-20,-12 -43,-38 -43,-48c0,-5 36,-9 80,-9c83,0 102,12 60,38c-11,7 -20,21 -20,31c0,31 37,108 55,115c31,11 162,7 173,-7c11,-13 42,-93 45,-116c1,-8 -9,-17 -23,-21c-14,-3 -26,-14 -28,-24c-4,-17 12,-18 305,-14c273,3 312,5 341,21c73,40 97,145 44,195c-15,15 -37,32 -47,38c-19,11 -18,14 17,50c53,57 56,81 16,135c-21,27 -47,48 -69,56c-20,6 -117,13 -225,15c-156,2 -189,1 -189,-11c0,-14 15,-25 48,-35c16,-5 17,-22 15,-213l-3,-208l-42,-3c-52,-4 -69,13 -102,100c-70,187 -144,363 -154,370c-19,12 -67,9 -67,-4zM5181,3081c24,-29 25,-83 2,-103c-37,-32 -70,-41 -153,-42l-85,-1l-5,78c-3,42 -3,82 -1,88c2,7 41,10 113,7c101,-3 111,-5 129,-27zM4515,3050c3,-5 16,-38 29,-72c13,-35 27,-71 31,-80c6,-16 0,-18 -63,-18c-39,0 -73,3 -75,8c-6,10 54,172 64,172c4,0 11,-4 14,-10zM5165,2876c59,-25 73,-88 31,-141c-24,-30 -25,-30 -140,-33l-116,-4v89c0,50 3,93 7,96c12,13 183,7 218,-7z"></path><path d="M5352,3161c-23,-6 -23,-7 -5,-23c10,-9 27,-18 38,-20c18,-3 21,-14 26,-118c4,-63 4,-158 0,-210l-6,-95l-30,-5c-18,-3 -31,-12 -33,-23c-3,-16 12,-17 200,-17l203,1l27,81c38,111 25,121 -50,39l-57,-64l-79,-5c-60,-4 -80,-2 -87,9c-5,8 -9,100 -9,205c0,204 0,204 50,204c18,0 36,28 25,39c-8,8 -184,10 -213,2z"></path><path d="M5798,3162c-35,-7 -12,-37 32,-44l25,-3v-210v-209l-25,-6c-14,-3 -26,-14 -28,-23c-3,-16 13,-17 219,-15l223,3l19,33c28,48 47,116 36,133c-6,11 -19,2 -56,-40c-61,-70 -90,-81 -208,-81h-96l3,93l3,92l29,3c16,2 44,1 63,-3c26,-5 33,-11 33,-30c0,-36 10,-55 31,-55c18,0 19,9 19,114c0,95 -3,115 -16,120c-9,3 -17,6 -19,6c-1,0 -5,-17 -9,-39c-8,-51 -24,-63 -83,-59l-48,3l-3,83c-2,61 0,82 10,83c62,5 197,-5 218,-16c14,-7 41,-29 59,-49c56,-58 65,-43 31,54c-16,48 -22,56 -52,62c-32,7 -376,7 -410,0z"></path><path d="M6457,3155c-52,-18 -85,-51 -97,-96c-24,-88 13,-124 191,-180c152,-48 179,-70 153,-120c-25,-49 -70,-71 -136,-66c-67,4 -108,31 -159,106c-34,51 -66,64 -62,26c1,-11 5,-55 9,-97c6,-66 10,-78 25,-78c10,0 22,8 27,17c9,15 14,15 67,-5c125,-48 252,-14 301,80c31,60 8,123 -59,162c-23,14 -80,36 -127,50c-109,31 -143,44 -152,59c-15,24 -7,57 19,82c22,20 38,25 79,25c60,0 106,-27 170,-98c49,-55 65,-51 53,14c-14,75 -29,123 -40,130c-6,3 -19,-2 -29,-11c-18,-16 -22,-16 -60,-1c-49,19 -121,20 -173,1z"></path><path d="M1189,2606c-36,-37 -99,-36 2811,-36c2812,0 2820,0 2820,20c0,20 -9,20 -2811,22c-1765,2 -2814,-1 -2820,-6z"></path><path d="M2317,2458c-19,-40 -47,-100 -61,-133c-15,-33 -39,-72 -53,-87c-32,-34 -25,-45 27,-40c39,4 40,5 25,22c-15,16 -14,21 1,59c16,40 18,41 63,41c37,1 43,3 28,11c-10,6 -27,9 -38,6c-26,-7 -26,32 0,64c16,20 21,21 34,10c9,-7 19,-27 23,-44c3,-17 13,-42 21,-54c8,-12 18,-42 21,-68c4,-25 10,-46 15,-45c4,0 31,0 61,0h55l-33,53c-17,30 -56,104 -86,165c-29,62 -57,112 -61,112c-3,0 -22,-33 -42,-72z"></path><path d="M5218,2524c-4,-3 -3,-17 3,-31c5,-13 9,-40 9,-58v-34l-54,1c-37,1 -62,-4 -81,-16c-26,-17 -28,-17 -50,4c-21,20 -28,21 -55,11c-22,-7 -46,-8 -77,-1c-54,13 -68,6 -48,-23c18,-26 20,-98 3,-144c-6,-18 -10,-34 -7,-36c2,-2 25,-2 51,1c45,4 46,5 37,29c-13,35 -11,116 4,136c11,16 14,16 47,0c23,-12 36,-27 41,-48c4,-16 10,-42 13,-57c7,-29 44,-54 86,-58c40,-3 40,-2 9,29c-24,25 -29,38 -29,80c0,63 15,80 67,72c37,-6 38,-7 38,-51c0,-25 -4,-64 -8,-87l-7,-43h45h45l-2,163l-3,162l-35,3c-20,2 -39,0 -42,-4z"></path><path d="M4404,2511c-2,-2 8,-13 23,-24c26,-20 26,-21 21,-138c-5,-116 -16,-155 -42,-146c-6,2 -13,19 -16,38c-4,30 -8,34 -35,34c-25,0 -31,-4 -33,-27c-6,-49 85,-76 147,-43c39,19 51,60 51,168c0,78 3,94 21,113l21,22l-77,4c-42,2 -78,1 -81,-1z"></path><path d="M2560,2399c0,-4 7,-12 15,-19c17,-14 20,-96 6,-148l-10,-32h42h42v80c0,95 16,121 62,104c27,-9 28,-12 28,-79c0,-39 -4,-78 -9,-87c-7,-16 -3,-18 36,-18h43l-3,74c-5,88 7,116 47,116c46,0 55,-20 48,-110l-5,-80h37h38l-4,83c-4,73 -8,85 -31,106c-22,20 -31,22 -66,15c-43,-8 -50,-8 -213,-2c-57,2 -103,0 -103,-3z"></path><path d="M3016,2401c-3,-5 1,-11 9,-15c18,-6 21,-118 5,-160c-9,-25 -8,-26 33,-26h42l-3,52c-2,29 1,72 6,95c9,41 9,42 -21,52c-37,13 -64,14 -71,2z"></path><path d="M3151,2403c-9,-4 -3,-10 18,-19c29,-12 31,-17 31,-61c0,-26 -4,-65 -9,-85l-9,-38h42h43l-5,55c-7,83 3,122 34,129c14,4 35,4 46,0c19,-6 20,-12 16,-96l-4,-89l35,3l35,3l-3,70c-4,129 -17,142 -121,123c-45,-8 -68,-7 -86,1c-27,12 -41,13 -63,4z"></path><path d="M3499,2396c-15,-9 -29,-22 -33,-31c-9,-24 46,-20 62,5c14,22 45,26 59,8c12,-17 9,-136 -5,-150c-5,-5 -20,-8 -33,-6c-31,4 -37,42 -12,71c17,20 17,20 0,14c-11,-4 -30,-10 -43,-13c-25,-6 -39,-37 -32,-71c3,-16 15,-18 101,-20l97,-2v89c0,79 -2,90 -20,100c-35,19 -112,22 -141,6z"></path><path d="M3716,2393c11,-23 11,-129 1,-166c-8,-28 -7,-28 35,-25l42,3l-3,51c-1,27 4,69 12,92l15,42h-29c-15,0 -31,5 -34,10c-3,6 -15,10 -27,10c-16,0 -18,-4 -12,-17z"></path><path d="M3845,2401c-16,-7 -15,-9 13,-14l32,-6v-75c0,-41 -4,-78 -10,-81c-22,-14 -7,-25 34,-25h44l-5,88c-3,48 -10,93 -17,99c-15,16 -66,24 -91,14z"></path><path d="M4680,2403c-48,-5 -79,-22 -96,-55c-18,-35 -18,-52 1,-92c22,-47 112,-85 130,-56c3,6 -3,10 -15,10c-44,0 -79,111 -47,153c21,28 62,32 86,8c26,-26 29,-115 5,-149c-14,-21 -14,-22 6,-22c26,0 78,52 87,88c7,30 -12,68 -47,93c-29,20 -62,27 -110,22z"></path><path d="M5408,2400c-51,-6 -75,-21 -64,-39c11,-18 44,-13 67,10c11,11 28,19 37,17c15,-3 17,-17 16,-96l-1,-92h44c40,0 43,2 39,23c-3,12 -8,52 -11,89c-4,37 -12,71 -18,76c-19,15 -58,19 -109,12z"></path><path d="M5596,2388c9,-27 9,-92 0,-148l-6,-40h45c43,0 58,11 34,26c-13,8 -5,104 11,134c13,25 45,34 70,20c19,-10 21,-18 18,-78c-2,-37 -8,-75 -12,-84c-7,-16 -2,-18 37,-18h44l-4,73c-2,39 -6,82 -9,95c-7,33 -47,45 -110,32c-38,-8 -59,-8 -73,-1c-35,19 -54,14 -45,-11z"></path><path d="M4111,2348c-16,-5 -21,-16 -21,-42c0,-29 4,-36 31,-45c51,-18 97,18 80,62c-10,27 -53,39 -90,25z"></path><path d="M5372,2289c-40,-17 -43,-21 -40,-51c3,-33 4,-33 58,-35c53,-3 54,-2 33,13c-27,19 -29,36 -7,69c19,29 13,30 -44,4z"></path></g></g></g></svg>